Fixed-Medium.sfdir
StartChar: exclam
Encoding: 33 33 1
Width: 500
Flags: MW
LayerCount: 2
Fore
SplineSet
208 722 m 1xe0
 292 722 l 1xe0
 283 175 l 1
 216 175 l 1xd0
 209 671 l 1
 208 722 l 1xe0
EndSplineSet
Refer: 14 46 S 1 0 0 1 112 0 2
EndChar
StartChar: quotedbl
Encoding: 34 34 2
Width: 500
Flags: MW
LayerCount: 2
Fore
SplineSet
127 722 m 1
 205 722 l 1xc0
 197 362 l 1
 197 362 l 1xa0
 136 362 l 1xa0
 127 722 l 1
295 722 m 1
 373 722 l 1x90
 364 362 l 1
 303 362 l 1x88
 303 362 l 1x88
 295 722 l 1
EndSplineSet
EndChar
StartChar: numbersign
Encoding: 35 35 3
Width: 500
Flags: W
LayerCount: 2
Fore
SplineSet
32 150 m 0
 32 158 35 169 45 175 c 0
 51 178 58 180 69 180 c 2
 140 180 l 1
 166 320 l 1
 67 320 l 2
 57 320 49 322 44 326 c 0
 33 333 32 345 32 350 c 0
 32 358 34 367 42 373 c 0
 48 378 57 381 72 381 c 2
 179 381 l 1
 238 683 l 2
 239 688 241 704 249 714 c 0
 253 719 258 722 265 722 c 0
 278 722 288 708 289 693 c 0
 289 685 287 677 285 670 c 2
 228 381 l 1
 323 381 l 1
 382 683 l 2
 383 688 385 703 392 713 c 0
 396 718 402 722 409 722 c 0
 422 722 436 708 436 692 c 1
 437 685 434 677 433 670 c 2
 373 381 l 1
 418 381 l 2
 436 381 446 381 455 375 c 0
 463 369 468 360 468 350 c 0
 468 343 466 334 458 328 c 0
 452 324 444 320 431 320 c 2
 360 320 l 1
 333 180 l 1
 433 180 l 2
 445 180 453 177 458 172 c 0
 466 165 468 154 468 150 c 0
 468 142 466 132 456 126 c 0
 450 122 441 119 428 119 c 2
 322 119 l 1
 262 -183 l 2
 261 -188 259 -204 251 -214 c 0
 247 -219 242 -222 235 -222 c 0
 222 -222 211 -208 211 -192 c 0
 211 -185 213 -177 215 -170 c 2
 271 119 l 1
 177 119 l 1
 118 -183 l 2
 117 -189 115 -207 105 -216 c 0
 101 -220 97 -222 91 -222 c 0
 78 -222 64 -208 63 -192 c 0
 63 -185 67 -177 68 -170 c 2
 127 119 l 1
 81 119 l 2
 71 119 57 119 46 124 c 0
 38 128 32 136 32 150 c 0
190 180 m 1
 284 180 l 1
 310 320 l 1
 217 320 l 1
 190 180 l 1
EndSplineSet
EndChar
StartChar: dollar
Encoding: 36 36 4
Width: 500
Flags: MW
LayerCount: 2
Fore
SplineSet
50 61 m 1
 62 130 l 1
 82 114 125 70 226 55 c 1
 226 337 l 1
 226 337 l 1
 104 365 62 459 62 534 c 0
 62 616 112 710 226 731 c 1
 226 750 l 1
 286 750 l 1
 286 732 l 1
 346 726 384 711 434 675 c 1
 422 609 l 1
 376 644 342 662 286 667 c 1
 286 414 l 1
 416 383 450 275 450 203 c 0
 450 96 379 7 286 -8 c 1
 286 -28 l 1
 226 -28 l 1
 226 -10 l 1
 169 -4 109 15 50 61 c 1
134 547 m 0
 134 504 157 449 226 430 c 1
 226 665 l 1
 226 665 l 1
 155 642 134 587 134 547 c 0
286 58 m 1
 359 81 376 148 376 190 c 0
 376 233 360 296 286 322 c 1
 286 288 l 1
 286 58 l 1
EndSplineSet
EndChar
StartChar: percent
Encoding: 37 37 5
Width: 500
Flags: W
LayerCount: 2
Fore
SplineSet
17 556 m 0
 17 646 56 750 142 750 c 0
 216 750 264 646 264 555 c 0
 264 470 218 361 142 361 c 0
 60 361 17 463 17 556 c 0
81 556 m 0
 81 473 105 423 144 423 c 3
 182 423 208 503 208 556 c 0
 208 611 183 689 142 689 c 0
 97 689 81 616 81 556 c 0
38 -7 m 0
 38 1 45 11 47 13 c 1
 426 737 l 2
 429 742 436 749 445 749 c 0
 455 749 464 741 464 730 c 0
 464 721 456 710 452 702 c 2
 83 -5 l 2
 77 -14 71 -27 58 -27 c 0
 47 -27 38 -18 38 -7 c 0
236 167 m 0
 236 251 288 361 364 361 c 0
 450 361 483 258 483 166 c 0
 483 75 447 -28 364 -28 c 0
 276 -28 236 79 236 167 c 0
296 167 m 0
 296 76 325 34 366 34 c 3
 409 34 428 108 428 167 c 0
 428 224 409 300 364 300 c 0
 322 300 296 224 296 167 c 0
EndSplineSet
EndChar
StartChar: ampersand
Encoding: 38 38 6
Width: 500
Flags: W
LayerCount: 2
Fore
SplineSet
12 150 m 0
 12 246 60 314 112 365 c 1
 101 414 82 476 82 541 c 0
 82 658 149 744 203 744 c 0
 254 744 302 665 302 584 c 0
 302 554 297 517 265 460 c 0
 249 431 220 378 189 346 c 1
 223 232 268 152 277 133 c 1
 278 133 l 17
 304 170 327 205 343 250 c 0
 361 302 376 356 389 405 c 1
 453 389 l 1
 438 333 417 250 395 212 c 0
 368 165 346 116 318 73 c 1
 328 62 328 61 336 54 c 0
 346 46 357 42 374 42 c 0
 397 42 417 45 435 48 c 0
 464 53 484 60 488 60 c 1
 488 -7 l 1
 476 -10 456 -14 433 -17 c 0
 415 -20 394 -22 374 -22 c 0
 348 -22 323 -14 303 0 c 0
 290 9 285 12 272 27 c 1
 272 27 l 1
 244 -3 202 -22 154 -22 c 0
 80 -22 12 51 12 150 c 0
82 158 m 0
 82 101 111 42 155 42 c 0
 183 42 197 54 232 83 c 1
 214 114 167 189 135 286 c 1
 112 262 82 225 82 158 c 0
155 576 m 0
 155 520 162 467 171 420 c 1
 194 444 206 479 216 502 c 0
 231 538 235 565 235 585 c 0
 235 620 228 683 199 683 c 0
 182 683 155 657 155 576 c 0
EndSplineSet
EndChar
StartChar: quotesingle
Encoding: 39 39 7
Width: 500
Flags: MW
LayerCount: 2
Fore
SplineSet
211 722 m 1
 289 722 l 1xc0
 283 465 l 1
 281 362 l 1
 281 362 l 1xa0
 220 362 l 1
 220 362 l 1xa0
 211 722 l 1
EndSplineSet
EndChar
StartChar: parenleft
Encoding: 40 40 8
Width: 500
Flags: MW
LayerCount: 2
Fore
SplineSet
192 250 m 0
 192 550 315 689 383 750 c 1
 445 750 l 1
 416 719 393 697 364 648 c 0
 293 529 270 387 270 250 c 0
 270 -115 433 -231 445 -250 c 1
 383 -250 l 1
 319 -192 192 -54 192 250 c 0
EndSplineSet
EndChar
StartChar: asterisk
Encoding: 42 42 10
Width: 500
Flags: MW
LayerCount: 2
Fore
SplineSet
64 435 m 0
 64 456 81 465 92 470 c 2
 200 527 l 1
 200 528 l 1
 77 593 64 594 64 620 c 0
 64 639 81 655 100 655 c 0
 116 655 129 641 224 576 c 1
 221 621 216 708 216 713 c 0
 216 742 238 750 250 750 c 0
 260 750 284 743 284 716 c 0
 284 706 282 680 276 576 c 1
 381 649 388 655 400 655 c 0
 422 655 436 638 436 620 c 0
 436 599 418 591 408 585 c 2
 300 528 l 1
 300 527 l 1
 423 462 436 461 436 435 c 0
 436 416 419 400 400 400 c 0
 382 400 375 412 276 480 c 1
 279 434 284 347 284 343 c 0
 284 313 262 306 250 306 c 0
 231 306 216 321 216 339 c 0
 216 347 218 371 224 480 c 1
 120 407 113 400 100 400 c 0
 79 400 64 418 64 435 c 0
EndSplineSet
EndChar
StartChar: plus
Encoding: 43 43 11
Width: 500
Flags: MW
LayerCount: 2
Fore
SplineSet
37 250 m 0
 38 267 51 277 59 279 c 0
 67 281 76 281 84 281 c 2
 220 281 l 1
 220 538 l 2
 220 547 221 556 223 563 c 0
 227 575 234 583 250 583 c 0
 267 583 274 574 278 564 c 0
 282 553 281 541 281 538 c 2
 281 281 l 1
 417 281 l 2
 426 281 433 281 440 279 c 0
 454 275 462 267 463 250 c 0
 462 233 454 225 444 222 c 0
 437 220 429 220 423 220 c 2
 281 220 l 1
 281 -38 l 2
 281 -56 281 -65 269 -76 c 0
 263 -81 256 -83 251 -83 c 0
 233 -83 224 -69 221 -60 c 0
 219 -53 220 -46 220 -38 c 2
 220 220 l 1
 82 220 l 2
 81 220 78 219 74 219 c 0
 68 219 63 220 59 221 c 0
 43 226 38 240 37 250 c 0
EndSplineSet
EndChar
StartChar: comma
Encoding: 44 44 12
Width: 500
Flags: MW
LayerCount: 2
Fore
SplineSet
96 0 m 1
 96 84 l 1
 180 84 l 1
 180 14 l 1
 180 14 179 5 178 0 c 4
 176 -7 138 -125 138 -125 c 1
 96 -125 l 1
 122 0 l 1
 96 0 l 1
EndSplineSet
EndChar
StartChar: hyphen
Encoding: 45 45 13
Width: 500
Flags: MW
LayerCount: 2
Fore
SplineSet
117 193 m 1
 117 252 l 1
 383 252 l 1
 383 193 l 1
 117 193 l 1
EndSplineSet
EndChar
StartChar: period
Encoding: 46 46 14
Width: 500
Flags: MW
LayerCount: 2
Fore
SplineSet
96 0 m 1
 96 84 l 1
 180 84 l 1
 180 0 l 1
 96 0 l 1
EndSplineSet
EndChar
StartChar: slash
Encoding: 47 47 15
Width: 500
Flags: MW
LayerCount: 2
Fore
SplineSet
56 -219 m 0
 56 -210 63 -197 66 -186 c 2
 382 720 l 2
 385 731 392 749 414 749 c 0
 429 749 444 738 444 719 c 0
 444 711 439 700 436 691 c 2
 118 -220 l 2
 113 -233 109 -240 104 -244 c 4
 97 -249 91 -248 88 -250 c 1
 86 -250 l 2
 70 -250 56 -236 56 -219 c 0
EndSplineSet
EndChar
StartChar: seven
Encoding: 55 55 23
Width: 500
Flags: MW
LayerCount: 2
Fore
SplineSet
41 585 m 1
 41 656 l 1
 457 655 l 1
 457 590 l 1
 316 428 236 208 236 -11 c 1
 151 -11 l 1
 151 188 219 404 389 585 c 1
 41 585 l 1
EndSplineSet
EndChar
StartChar: less
Encoding: 60 60 28
Width: 500
Flags: MW
LayerCount: 2
Fore
SplineSet
48 250 m 1
 51 266 57 265 82 286 c 2
 408 552 l 2
 413 556 415 558 422 558 c 0
 440 558 452 543 452 528 c 0
 452 506 436 501 424 491 c 2
 124 250 l 1
 424 9 l 2
 436 0 450 -6 450 -28 c 0
 450 -44 437 -58 420 -58 c 0
 409 -58 397 -49 388 -42 c 2
 82 214 l 2
 49 242 51 242 48 250 c 1
EndSplineSet
EndChar
StartChar: equal
Encoding: 61 61 29
Width: 500
Flags: MW
LayerCount: 2
Fore
SplineSet
18 350 m 0
 18 357 20 367 30 374 c 0
 36 378 45 381 58 381 c 2
 442 381 l 2
 454 381 464 379 470 375 c 0
 481 368 482 356 482 350 c 0
 482 343 480 333 472 327 c 0
 466 323 458 320 446 320 c 2
 54 320 l 2
 39 320 31 324 26 329 c 0
 19 336 18 346 18 350 c 0
18 150 m 0
 18 158 21 170 32 176 c 0
 37 179 44 181 54 181 c 0
 57 181 61 180 64 180 c 2
 444 180 l 2
 455 180 464 177 470 174 c 0
 481 167 482 157 482 150 c 0
 482 143 481 134 472 127 c 0
 466 122 456 119 442 119 c 2
 56 119 l 2
 44 119 36 122 30 126 c 0
 20 133 18 143 18 150 c 0
EndSplineSet
EndChar
StartChar: greater
Encoding: 62 62 30
Width: 500
Flags: MW
LayerCount: 2
Fore
SplineSet
50 -28 m 0
 50 -6 64 0 76 9 c 2
 376 250 l 1
 76 491 l 2
 64 501 48 506 48 528 c 0
 48 543 60 558 78 558 c 0
 85 558 87 556 92 552 c 2
 418 286 l 2
 443 265 449 266 452 250 c 1
 449 242 451 242 418 214 c 2
 112 -42 l 2
 103 -49 91 -58 80 -58 c 0
 63 -58 50 -44 50 -28 c 0
EndSplineSet
EndChar
StartChar: question
Encoding: 63 63 31
Width: 500
Flags: MW
LayerCount: 2
Fore
SplineSet
70 677 m 1
 109 705 158 730 224 733 c 4
 228 733 234 733 238 733 c 0
 397 733 430 636 430 571 c 0
 430 484 378 450 362 434 c 0
 268 343 270 246 270 215 c 2
 270 175 l 1
 202 175 l 1
 202 207 l 2
 202 414 307 476 332 508 c 0
 336 513 352 534 352 572 c 0
 352 652 297 672 240 672 c 0xd8
 170 672 125 642 92 614 c 1
 70 677 l 1
EndSplineSet
Refer: 14 46 N 1 0 0 1 98 0 2
EndChar
StartChar: at
Encoding: 64 64 32
Width: 518
Flags: W
LayerCount: 2
Fore
SplineSet
33 362 m 0
 33 448 63 547 112 621 c 0
 155 687 214 733 279 733 c 0
 346 733 389 695 416 641 c 0
 455 562 462 450 462 368 c 0
 462 255 395 126 303 126 c 0
 242 126 192 229 192 361 c 0
 192 492 242 597 303 597 c 0
 329 597 348 585 362 570 c 1
 338 645 310 672 280 672 c 0
 232 672 191 635 162 583 c 0
 127 520 108 434 108 361 c 0
 108 288 128 200 164 137 c 4
 193 86 234 51 283 51 c 0
 334 51 385 85 398 87 c 0
 406 89 414 88 422 88 c 2
 462 88 l 1
 403 22 329 -11 281 -11 c 0
 215 -11 155 36 111 103 c 0
 63 177 33 275 33 362 c 0
267 362 m 0
 267 322 271 286 277 257 c 0
 287 214 303 187 320 187 c 0
 334 187 349 208 365 247 c 0
 378 275 387 314 387 360 c 0
 387 414 377 459 363 489 c 0
 350 519 332 535 319 535 c 0
 306 535 292 516 282 483 c 0
 273 453 267 411 267 362 c 0
EndSplineSet
EndChar
StartChar: A
Encoding: 65 65 33
Width: 500
Flags: W
LayerCount: 2
Fore
SplineSet
34 0 m 1
 220 694 l 1
 274 694 l 1
 466 0 l 1
 374 0 l 1
 328 204 l 1
 154 204 l 1
 109 0 l 1
 34 0 l 1
167 260 m 1
 316 260 l 1
 249 579 l 25
 241 624 l 17
 232 551 218 497 167 260 c 1
EndSplineSet
EndChar
StartChar: B
Encoding: 66 66 34
Width: 500
Flags: W
LayerCount: 2
Fore
SplineSet
63 0 m 1
 63 694 l 1
 229 694 l 2
 331 694 419 591 419 520 c 0xf8
 419 457 366 392 287 363 c 1
 352 347 437 282 437 188 c 0
 437 97 345 0 245 0 c 6
 63 0 l 1
147 56 m 1
 232 56 l 2
 308 56 355 114 355 189 c 4xf4
 355 263 307 330 219 330 c 2
 147 330 l 1
 147 293 l 1
 147 56 l 1
147 392 m 1
 219 392 l 2
 290 392 340 449 340 519 c 0xf8
 340 567 308 638 216 638 c 2
 147 638 l 1
 147 603 l 1
 147 392 l 1
EndSplineSet
EndChar
StartChar: C
Encoding: 67 67 35
Width: 500
Flags: W
LayerCount: 2
Fore
SplineSet
51 347 m 0
 51 541 166 716 285 716 c 0
 328 716 386 701 438 682 c 1
 423 599 l 1
 369 632 328 652 283 652 c 0
 198 652 141 505 141 347 c 0
 141 186 199 42 285 42 c 0
 358 42 393 70 443 103 c 1
 449 33 l 1
 379 -8 338 -22 284 -22 c 0
 166 -22 51 155 51 347 c 0
EndSplineSet
EndChar
StartChar: D
Encoding: 68 68 36
Width: 500
Flags: W
LayerCount: 2
Fore
SplineSet
44 0 m 1
 44 694 l 1
 226 694 l 2
 380 694 456 483 456 342 c 0
 456 159 349 0 228 0 c 2
 44 0 l 1
131 56 m 1
 217 56 l 2
 306 56 369 209 369 341 c 0
 369 482 300 638 217 638 c 2
 131 638 l 1
 131 56 l 1
EndSplineSet
EndChar
StartChar: E
Encoding: 69 69 37
Width: 500
Flags: W
LayerCount: 2
Fore
SplineSet
70 0 m 1
 70 691 l 1
 416 691 l 1
 416 625 l 1
 160 627 l 1
 160 390 l 1
 389 390 l 1
 389 329 l 1
 160 329 l 1
 160 70 l 1
 430 72 l 1
 430 0 l 1
 70 0 l 1
EndSplineSet
EndChar
StartChar: F
Encoding: 70 70 38
Width: 500
Flags: W
LayerCount: 2
Fore
SplineSet
78 0 m 1
 78 691 l 1
 422 691 l 1
 422 625 l 1
 168 627 l 1
 168 376 l 1
 380 376 l 1
 380 315 l 1
 168 315 l 1
 168 0 l 1
 78 0 l 1
EndSplineSet
EndChar
StartChar: G
Encoding: 71 71 39
Width: 500
Flags: W
LayerCount: 2
Fore
SplineSet
56 347 m 0
 56 541 173 716 288 716 c 0
 340 716 378 697 436 668 c 1
 420 585 l 1
 364 627 339 652 289 652 c 0
 204 652 146 506 146 348 c 0
 146 176 209 42 288 42 c 0
 332 42 362 62 366 63 c 1
 366 237 l 1
 286 237 l 1
 286 299 l 1
 444 299 l 1
 444 26 l 1
 368 -9 326 -22 288 -22 c 0
 178 -22 56 144 56 347 c 0
EndSplineSet
EndChar
StartChar: H
Encoding: 72 72 40
Width: 500
Flags: W
LayerCount: 2
Fore
SplineSet
58 0 m 1
 58 694 l 1
 148 694 l 1
 148 392 l 1
 352 392 l 1
 352 694 l 1
 442 694 l 1
 442 0 l 1
 352 0 l 1
 352 330 l 1
 148 330 l 1
 148 0 l 1
 58 0 l 1
EndSplineSet
EndChar
StartChar: I
Encoding: 73 73 41
Width: 500
Flags: W
LayerCount: 2
Fore
SplineSet
205 0 m 1
 205 694 l 1
 295 694 l 1
 295 0 l 1
 205 0 l 1
EndSplineSet
EndChar
StartChar: J
Encoding: 74 74 42
Width: 500
Flags: W
LayerCount: 2
Fore
SplineSet
76 20 m 1
 90 95 l 1
 99 88 141 40 218 40 c 0
 275 40 336 63 336 157 c 2
 336 694 l 1
 424 694 l 1
 424 155 l 2
 424 13 329 -22 248 -22 c 0
 197 -22 137 -11 76 20 c 1
EndSplineSet
EndChar
StartChar: K
Encoding: 75 75 43
Width: 500
Flags: W
LayerCount: 2
Fore
SplineSet
47 0 m 1
 47 694 l 1
 133 694 l 1
 133 323 l 1
 351 694 l 1
 439 694 l 1
 255 413 l 1
 453 0 l 1
 359 0 l 1
 205 341 l 1
 133 228 l 1
 133 0 l 1
 47 0 l 1
EndSplineSet
EndChar
StartChar: L
Encoding: 76 76 44
Width: 500
Flags: W
LayerCount: 2
Fore
SplineSet
75 0 m 1
 75 694 l 1
 165 694 l 1
 165 65 l 1
 447 66 l 1
 447 0 l 1
 75 0 l 1
EndSplineSet
EndChar
StartChar: M
Encoding: 77 77 45
Width: 500
Flags: W
LayerCount: 2
Fore
SplineSet
16 0 m 1
 16 694 l 1
 116 694 l 1
 154 529 235 246 250 92 c 1
 250 92 l 1
 269 305 338 495 384 694 c 1
 484 694 l 1
 484 0 l 1
 406 0 l 1
 406 592 l 6
 406 612 405 624 405 624 c 1
 405 624 403 606 399 587 c 4
 358 397 314 210 271 22 c 1
 228 22 l 1
 188 197 115 456 94 624 c 1
 94 0 l 1
 16 0 l 1
EndSplineSet
EndChar
StartChar: N
Encoding: 78 78 46
Width: 500
Flags: W
LayerCount: 2
Fore
SplineSet
64 0 m 1
 64 694 l 1
 170 694 l 1
 335 150 l 1
 358 70 l 1
 358 694 l 1
 436 694 l 1
 436 0 l 1
 330 0 l 1
 165 544 l 1
 142 624 l 1
 142 0 l 1
 64 0 l 1
EndSplineSet
EndChar
StartChar: O
Encoding: 79 79 47
Width: 500
Flags: W
LayerCount: 2
Fore
SplineSet
27 345 m 0
 27 554 110 716 251 716 c 4
 384 716 473 555 473 345 c 0
 473 143 396 -22 250 -22 c 4
 108 -22 27 132 27 345 c 0
117 359 m 0
 117 190 170 43 250 43 c 0
 326 43 384 182 384 359 c 0
 384 540 320 652 250 652 c 0
 176 652 117 531 117 359 c 0
EndSplineSet
EndChar
StartChar: P
Encoding: 80 80 48
Width: 500
Flags: W
LayerCount: 2
Fore
SplineSet
70 0 m 1
 70 694 l 1
 247 694 l 2
 374 694 430 582 430 493 c 0
 430 394 354 289 229 289 c 2
 159 289 l 1
 159 0 l 1
 70 0 l 1
157 347 m 1
 237 347 l 2
 326 347 349 434 349 493 c 0
 349 550 326 638 237 638 c 2
 157 638 l 1
 157 347 l 1
EndSplineSet
EndChar
StartChar: Q
Encoding: 81 81 49
Width: 500
Flags: W
LayerCount: 2
Fore
SplineSet
28 345 m 0
 28 511 96 716 250 716 c 0
 418 716 472 487 472 345 c 0
 472 152 387 58 368 33 c 1
 444 -125 l 1
 358 -125 l 1
 307 -5 l 1
 291 -13 276 -22 250 -22 c 0
 90 -22 28 202 28 345 c 0
115 344 m 0
 115 196 155 42 250 42 c 0
 267 42 277 49 284 51 c 1
 223 195 l 1
 295 195 l 1
 332 102 l 1
 332 102 l 1
 349 124 385 191 385 344 c 0
 385 474 353 652 248 652 c 3
 147 652 115 473 115 344 c 0
EndSplineSet
EndChar
StartChar: R
Encoding: 82 82 50
Width: 500
Flags: W
LayerCount: 2
Fore
SplineSet
58 0 m 1
 58 694 l 1
 228 694 l 2
 335 694 422 581 422 508 c 0
 422 437 390 360 308 326 c 1
 442 0 l 1
 352 0 l 1
 240 316 l 1
 145 316 l 1
 145 0 l 1
 58 0 l 1
145 378 m 1
 213 378 l 2
 295 378 341 430 341 507 c 0
 341 573 305 638 226 638 c 2
 145 638 l 1
 145 378 l 1
EndSplineSet
EndChar
StartChar: S
Encoding: 83 83 51
Width: 500
Flags: W
LayerCount: 2
Fore
SplineSet
35 47 m 1
 50 130 l 1
 98 91 164 47 242 47 c 0
 312 47 367 110 367 179 c 0
 367 232 332 279 290 299 c 0
 235 327 141 320 75 421 c 0
 58 448 47 479 46 519 c 0
 46 616 131 716 249 716 c 0
 253 716 256 716 260 716 c 0
 318 714 363 694 412 668 c 1
 398 585 l 1
 349 624 311 649 248 649 c 0
 175 649 126 590 126 531 c 0
 126 481 161 442 196 424 c 0
 219 413 288 397 316 382 c 0
 377 356 447 289 447 189 c 0
 447 81 358 -22 242 -22 c 0
 168 -22 98 7 35 47 c 1
EndSplineSet
EndChar
StartChar: T
Encoding: 84 84 52
Width: 500
Flags: W
LayerCount: 2
Fore
SplineSet
2 623 m 1
 2 689 l 1
 498 689 l 1
 498 623 l 1
 295 624 l 1
 295 0 l 1
 206 0 l 1
 206 624 l 1
 2 623 l 1
EndSplineSet
EndChar
StartChar: U
Encoding: 85 85 53
Width: 500
Flags: W
LayerCount: 2
Fore
SplineSet
46 257 m 2
 46 694 l 1
 136 694 l 1
 136 279 l 2
 136 184 164 34 254 34 c 0
 322 34 371 128 374 212 c 1
 374 694 l 1
 453 694 l 1
 453 266 l 2
 453 95 388 -22 254 -22 c 0
 142 -22 46 92 46 257 c 2
EndSplineSet
EndChar
StartChar: V
Encoding: 86 86 54
Width: 500
Flags: W
LayerCount: 2
Fore
SplineSet
31 694 m 1
 124 694 l 1
 169 521 235 210 271 70 c 1
 391 694 l 1
 469 694 l 1
 309 0 l 1
 217 0 l 1
 31 694 l 1
EndSplineSet
EndChar
StartChar: W
Encoding: 87 87 55
Width: 500
Flags: W
LayerCount: 2
Fore
SplineSet
12 694 m 1
 100 694 l 1
 98 645 152 207 156 70 c 1
 152 207 214 694 214 694 c 1
 296 694 l 1
 296 694 354 212 356 70 c 1
 358 227 416 651 416 694 c 1
 488 694 l 1
 394 0 l 1
 308 0 l 1
 308 0 250 479 248 624 c 1
 248 508 186 0 186 0 c 1
 106 0 l 1
 12 694 l 1
EndSplineSet
EndChar
StartChar: X
Encoding: 88 88 56
Width: 500
Flags: W
LayerCount: 2
Fore
SplineSet
18 0 m 1
 196 364 l 1
 32 694 l 1
 128 694 l 1
 245 464 l 1
 357 694 l 1
 440 694 l 1
 290 376 l 1
 482 0 l 1
 377 0 l 1
 242 272 l 1
 114 0 l 1
 18 0 l 1
EndSplineSet
EndChar
StartChar: Y
Encoding: 89 89 57
Width: 500
Flags: W
LayerCount: 2
Fore
SplineSet
4 694 m 1
 91 694 l 1
 189 481 l 2
 218 418 246 376 255 348 c 1
 271 397 408 694 408 694 c 17
 496 694 l 1
 285 278 l 1
 285 0 l 1
 198 0 l 1
 198 278 l 1
 4 694 l 1
EndSplineSet
EndChar
StartChar: Z
Encoding: 90 90 58
Width: 500
Flags: W
LayerCount: 2
Fore
SplineSet
50 0 m 1
 50 25 l 2
 50 44 54 43 64 63 c 2
 354 632 l 1
 64 631 l 1
 64 694 l 1
 444 694 l 1
 444 670 l 2
 444 651 442 653 432 633 c 2
 142 65 l 1
 450 66 l 1
 450 0 l 1
 50 0 l 1
EndSplineSet
EndChar
StartChar: bracketleft
Encoding: 91 91 59
Width: 500
Flags: MW
LayerCount: 2
Fore
SplineSet
213 -250 m 1xd0
 213 750 l 1
 479 750 l 1
 479 689 l 1xd0
 288 689 l 1
 288 -189 l 1xe0
 479 -189 l 1
 479 -250 l 1
 213 -250 l 1xd0
EndSplineSet
EndChar
StartChar: backslash
Encoding: 92 92 130
Width: 500
Flags: MW
LayerCount: 2
Fore
SplineSet
56 719 m 0
 56 737 71 749 86 749 c 0
 110 749 118 724 122 711 c 2
 438 -197 l 2
 440 -204 444 -211 444 -219 c 0
 444 -233 432 -250 414 -250 c 0
 388 -250 381 -220 376 -206 c 2
 58 709 l 2
 57 712 56 716 56 719 c 0
EndSplineSet
EndChar
StartChar: bracketright
Encoding: 93 93 61
Width: 500
Flags: MW
LayerCount: 2
Fore
SplineSet
21 -189 m 1xe0
 211 -189 l 1
 211 689 l 1xd0
 21 689 l 1
 21 750 l 1
 287 750 l 1
 287 -250 l 1
 21 -250 l 1
 21 -189 l 1xe0
EndSplineSet
EndChar
StartChar: asciicircum
Encoding: 94 94 62
Width: 500
Flags: MW
LayerCount: 2
Fore
SplineSet
78 445 m 1
 219 630 l 1
 281 630 l 1
 422 445 l 1
 361 445 l 1
 250 581 l 1
 139 445 l 1
 78 445 l 1
EndSplineSet
EndChar
StartChar: underscore
Encoding: 95 95 63
Width: 500
Flags: MW
LayerCount: 2
Fore
SplineSet
0 -228 m 0
 0 -206 23 -208 34 -208 c 2
 467 -208 l 2
 478 -208 500 -206 500 -228 c 0
 500 -236 496 -248 472 -248 c 2
 34 -248 l 2
 21 -248 0 -248 0 -228 c 0
EndSplineSet
EndChar
StartChar: grave
Encoding: 96 96 64
Width: 500
Flags: MW
LayerCount: 2
Fore
SplineSet
144 640 m 1
 222 640 l 1
 356 510 l 1
 294 510 l 1
 144 640 l 1
EndSplineSet
EndChar
StartChar: a
Encoding: 97 97 65
Width: 500
Flags: MW
LayerCount: 2
Fore
SplineSet
72 113 m 0
 72 219 247 244 350 245 c 1
 350 279 l 2
 349 311 348 341 324 371 c 0
 300 400 274 401 261 401 c 0
 187 401 145 373 111 350 c 1
 105 417 l 1
 152 444 197 461 264 461 c 0
 358 461 422 387 428 305 c 2
 428 0 l 1
 352 0 l 1
 352 35 l 1
 299 -2 233 -11 186 -11 c 0
 102 -11 72 67 72 113 c 0
145 114 m 0
 145 77 185 51 238 51 c 0
 284 51 350 66 350 130 c 2
 350 193 l 1
 277 192 145 177 145 114 c 0
EndSplineSet
EndChar
StartChar: b
Encoding: 98 98 66
Width: 500
Flags: MW
LayerCount: 2
Fore
SplineSet
50 0 m 1
 50 722 l 1
 126 722 l 1
 126 397 l 1
 191 448 255 455 286 455 c 0
 385 455 450 344 450 224 c 0
 450 93 367 -11 262 -11 c 0
 203 -11 162 16 128 46 c 1
 128 0 l 1
 50 0 l 1
128 133 m 2
 128 107 133 108 146 90 c 0
 169 61 199 50 228 50 c 0
 285 50 370 92 370 223 c 0
 370 356 290 394 236 394 c 0
 185 394 128 357 128 320 c 2
 128 133 l 2
EndSplineSet
EndChar
StartChar: c
Encoding: 99 99 67
Width: 500
Flags: MW
LayerCount: 2
Fore
SplineSet
60 223 m 0
 60 339 140 461 280 461 c 0
 342 461 374 452 435 417 c 1
 423 351 l 1
 384 375 358 397 279 397 c 0
 195 397 150 330 140 255 c 4
 139 244 138 234 138 223 c 0
 138 126 194 53 278 53 c 0
 356 53 403 85 435 107 c 1
 440 40 l 1
 395 10 346 -11 277 -11 c 0
 154 -11 60 94 60 223 c 0
EndSplineSet
EndChar
StartChar: d
Encoding: 100 100 68
Width: 500
Flags: MW
LayerCount: 2
Fore
SplineSet
50 221 m 0
 50 303 81 374 128 416 c 0
 156 441 190 456 228 456 c 0
 290 456 339 429 374 401 c 1
 374 722 l 1
 450 722 l 1
 450 0 l 1
 370 0 l 1
 370 52 l 1
 336 20 288 -11 222 -11 c 0
 186 -11 153 3 126 28 c 0
 80 70 50 142 50 221 c 0
128 222 m 0
 128 150 153 105 184 80 c 0
 209 59 240 51 264 51 c 0
 323 51 370 101 370 134 c 2
 370 325 l 2
 370 341 369 347 350 364 c 0
 320 393 287 394 276 394 c 2
 274 394 l 2
 216 394 128 353 128 222 c 0
EndSplineSet
EndChar
StartChar: e
Encoding: 101 101 69
Width: 500
Flags: MW
LayerCount: 2
Fore
SplineSet
60 226 m 0
 60 351 147 461 262 461 c 0
 333 461 431 420 440 249 c 2
 440 220 l 1
 130 220 l 1
 132 169 151 125 180 94 c 4
 206 67 239 51 278 51 c 0
 346 51 393 79 430 106 c 1
 436 40 l 1
 393 11 341 -11 278 -11 c 0
 147 -11 60 102 60 226 c 0
135 275 m 1
 383 275 l 1
 367 387 291 399 262 399 c 0
 186 399 146 325 135 275 c 1
EndSplineSet
EndChar
StartChar: f
Encoding: 102 102 70
Width: 500
Flags: MW
LayerCount: 2
Fore
SplineSet
119 386 m 1
 119 445 l 1
 193 445 l 1
 193 518 l 2
 193 526 192 534 192 542 c 0
 192 607 213 657 247 689 c 0
 277 718 317 733 360 733 c 0
 391 733 416 728 439 722 c 1
 439 655 l 1
 416 664 390 672 358 672 c 0
 337 672 310 666 291 648 c 0
 276 634 265 613 265 581 c 2
 265 445 l 1
 378 445 l 1
 378 386 l 1
 268 386 l 1
 268 0 l 1
 193 0 l 1
 193 386 l 1
 119 386 l 1
EndSplineSet
EndChar
StartChar: g
Encoding: 103 103 71
Width: 500
Flags: MW
LayerCount: 2
Fore
SplineSet
126 292 m 0
 126 263 133 240 145 222 c 0
 161 199 186 187 216 187 c 0
 236 187 262 194 281 216 c 0
 295 232 305 257 305 293 c 0
 305 301 304 309 303 316 c 0
 299 343 288 364 272 378 c 0
 257 391 238 398 215 398 c 0
 197 398 174 393 156 376 c 0
 142 363 131 344 127 315 c 0
 126 308 126 300 126 292 c 0
91 -71 m 0
 91 -94 107 -112 130 -124 c 0
 157 -138 192 -146 222 -148 c 0
 229 -149 235 -149 241 -149 c 0
 288 -149 333 -138 362 -120 c 0
 382 -107 395 -91 395 -72 c 0
 395 -31 354 -3 246 -3 c 2
 183 -3 l 1
 154 -4 l 2
 113 -7 91 -43 91 -71 c 0
21 -71 m 0
 21 -30 46 9 85 32 c 1
 69 55 60 76 60 108 c 0
 60 140 71 168 89 192 c 1
 89 193 l 1
 59 233 56 272 56 292 c 0
 56 340 78 387 114 418 c 0
 141 441 175 455 215 455 c 0
 220 455 225 454 230 454 c 0
 259 451 283 442 310 424 c 1
 359 444 416 455 468 455 c 1
 479 392 l 1
 459 394 440 395 420 395 c 0
 397 395 362 392 342 391 c 1
 365 359 375 332 375 292 c 0
 375 248 357 206 327 176 c 0
 299 147 260 129 215 129 c 0
 159 129 127 158 124 159 c 0
 114 139 113 129 113 122 c 0
 113 98 125 69 169 69 c 2
 244 69 l 2
 282 69 338 68 384 49 c 4
 418 35 448 10 460 -33 c 0
 463 -45 465 -57 465 -70 c 0
 465 -115 432 -154 380 -178 c 0
 342 -196 295 -206 243 -206 c 0
 197 -206 154 -197 118 -183 c 0
 85 -170 59 -152 42 -130 c 0
 29 -112 21 -92 21 -71 c 0
EndSplineSet
EndChar
StartChar: h
Encoding: 104 104 72
Width: 500
Flags: MW
LayerCount: 2
Fore
SplineSet
72 0 m 1
 72 722 l 1
 147 722 l 1
 147 384 l 1
 180 422 222 455 291 455 c 0
 399 455 422 385 427 326 c 0
 428 312 428 299 428 288 c 2
 428 0 l 1
 350 0 l 1
 350 281 l 2
 350 340 339 394 252 394 c 0
 176 394 150 314 150 240 c 2
 150 0 l 1
 72 0 l 1
EndSplineSet
EndChar
StartChar: i
Encoding: 105 105 73
Width: 500
Flags: MW
LayerCount: 2
Fore
SplineSet
212 0 m 5
 212 445 l 5
 287 445 l 5
 287 0 l 5
 212 0 l 5
205 590 m 1
 205 679 l 1
 295 679 l 1
 295 590 l 1
 205 590 l 1
EndSplineSet
EndChar
StartChar: j
Encoding: 106 106 74
Width: 500
Flags: MW
LayerCount: 2
Fore
SplineSet
77 -171 m 1
 92 -110 l 1
 117 -130 139 -141 170 -141 c 0
 211 -141 239 -117 246 -91 c 0
 248 -83 248 -74 248 -65 c 2
 248 445 l 1
 323 445 l 1
 323 -50 l 2xe8
 323 -105 307 -142 286 -166 c 0
 260 -195 225 -205 197 -205 c 0
 149 -205 108 -189 77 -171 c 1
234 590 m 1
 234 679 l 1
 324 679 l 1
 324 590 l 1
 234 590 l 1
EndSplineSet
EndChar
StartChar: k
Encoding: 107 107 75
Width: 500
Flags: MW
LayerCount: 2
Fore
SplineSet
56 0 m 1
 56 722 l 1
 128 722 l 1
 128 236 l 1
 332 445 l 1
 422 445 l 1
 254 273 l 1
 444 0 l 1
 362 0 l 1
 206 224 l 1
 126 142 l 1
 126 0 l 1
 56 0 l 1
EndSplineSet
EndChar
StartChar: l
Encoding: 108 108 76
Width: 500
Flags: MW
LayerCount: 2
Fore
SplineSet
212 0 m 1
 212 722 l 1
 288 722 l 1
 288 0 l 1
 212 0 l 1
EndSplineSet
EndChar
StartChar: m
Encoding: 109 109 77
Width: 500
Flags: W
LayerCount: 2
Fore
SplineSet
33 0 m 1xdc
 33 450 l 1
 86 450 l 1
 86 404 l 1
 86 380 l 1
 96 398 132 455 176 455 c 0
 230 455 260 412 274 374 c 1
 282 394 308 455 354 455 c 0
 374 455 398 445 418 429 c 0
 448 405 461 368 465 334 c 0
 467 317 467 302 467 288 c 2
 467 0 l 1
 408 0 l 1
 408 281 l 2
 408 340 389 394 345 394 c 0
 307 394 284 314 284 240 c 2
 284 0 l 1
 226 0 l 1
 226 281 l 2
 226 340 201 394 157 394 c 0xec
 119 394 91 314 91 240 c 2
 91 0 l 1
 33 0 l 1xdc
EndSplineSet
EndChar
StartChar: n
Encoding: 110 110 78
Width: 500
Flags: MW
LayerCount: 2
Fore
SplineSet
72 0 m 1xd8
 72 450 l 1
 145 450 l 1
 145 408 l 5
 145 380 l 1
 159 398 203 455 291 455 c 0
 342 455 374 440 394 417 c 0
 415 393 423 360 426 328 c 0
 427 314 428 301 428 288 c 2
 428 0 l 1
 350 0 l 1
 350 281 l 2
 350 340 339 394 252 394 c 0xe8
 176 394 150 314 150 240 c 2
 150 0 l 1
 72 0 l 1xd8
EndSplineSet
EndChar
StartChar: o
Encoding: 111 111 79
Width: 500
Flags: MW
LayerCount: 2
Fore
SplineSet
30 221 m 0
 30 336 115 461 250 461 c 0
 369 461 470 355 470 220 c 0
 470 84 364 -11 250 -11 c 0
 136 -11 30 84 30 221 c 0
108 231 m 0
 108 119 172 53 250 53 c 0
 317 53 390 106 390 231 c 0
 390 337 329 399 250 399 c 0
 186 399 108 352 108 231 c 0
EndSplineSet
EndChar
StartChar: p
Encoding: 112 112 80
Width: 500
Flags: MW
LayerCount: 2
Fore
SplineSet
50 -195 m 1
 50 445 l 1
 126 445 l 1
 126 396 l 1
 148 414 171 426 192 435 c 0
 233 452 270 455 292 455 c 0
 338 455 376 428 404 386 c 0
 432 343 450 285 450 224 c 0
 450 157 428 94 390 50 c 0
 358 13 315 -11 264 -11 c 0
 228 -11 198 -1 172 14 c 0
 156 23 141 34 128 46 c 1
 128 -195 l 1
 50 -195 l 1
128 126 m 2
 128 112 142 89 164 72 c 0
 180 60 201 50 226 50 c 0
 262 50 300 68 328 100 c 0
 354 130 370 171 370 222 c 0
 370 233 370 244 368 254 c 4
 362 291 347 325 324 350 c 0
 301 375 270 391 234 391 c 0
 205 391 183 381 166 370 c 0
 142 354 129 334 128 334 c 1
 128 126 l 2
EndSplineSet
EndChar
StartChar: q
Encoding: 113 113 81
Width: 500
Flags: MW
LayerCount: 2
Fore
SplineSet
50 221 m 0
 50 352 132 455 236 455 c 0
 301 455 345 421 374 388 c 1
 374 455 l 1
 450 455 l 1xf4
 450 -195 l 1
 370 -195 l 1
 370 50 l 1xf8
 331 14 280 -11 220 -11 c 0
 177 -11 139 10 110 44 c 4
 74 87 50 150 50 221 c 0
128 221 m 0
 128 170 147 123 176 92 c 0
 200 67 230 51 264 51 c 0
 318 51 374 95 374 138 c 2
 374 285 l 2
 374 314 346 392 274 392 c 0xf4
 239 392 194 372 164 332 c 0
 143 304 128 267 128 221 c 0
EndSplineSet
EndChar
StartChar: r
Encoding: 114 114 82
Width: 500
Flags: MW
LayerCount: 2
Fore
SplineSet
128 0 m 1xd0
 128 450 l 1
 198 450 l 1
 198 404 l 5
 198 360 l 1xe0
 215 384 266 454 372 455 c 1
 372 388 l 1
 314 386 202 351 202 206 c 2xd0
 202 0 l 1
 128 0 l 1xd0
EndSplineSet
EndChar
StartChar: s
Encoding: 115 115 83
Width: 500
Flags: MW
LayerCount: 2
Fore
SplineSet
84 34 m 1
 96 102 l 1
 139 77 177 52 252 52 c 0
 327 52 346 93 346 120 c 0
 346 159 310 178 290 184 c 0
 268 191 225 196 194 206 c 0
 167 214 134 232 112 260 c 0
 98 278 90 301 90 329 c 0
 90 363 100 407 144 435 c 4
 169 451 205 461 254 461 c 0
 310 461 346 453 400 430 c 1
 388 364 l 1
 348 383 316 401 244 401 c 0
 175 401 160 364 160 340 c 0
 160 267 273 278 330 252 c 0
 371 233 416 192 416 127 c 0
 416 93 405 49 366 20 c 0
 341 1 306 -11 254 -11 c 0
 220 -11 159 -7 84 34 c 1
EndSplineSet
EndChar
StartChar: t
Encoding: 116 116 84
Width: 500
Flags: MW
LayerCount: 2
Fore
SplineSet
93 386 m 1
 93 445 l 1
 179 445 l 1
 179 571 l 1
 249 571 l 1
 249 445 l 1
 390 445 l 1
 390 386 l 1
 249 386 l 1
 249 140 l 2
 249 117 251 86 267 68 c 4
 275 59 286 53 303 53 c 0
 350 53 380 80 391 86 c 1
 407 27 l 1
 355 -1 303 -11 259 -11 c 0
 242 -11 221 -6 204 14 c 0
 189 33 177 64 177 117 c 2
 177 386 l 1
 93 386 l 1
EndSplineSet
EndChar
StartChar: u
Encoding: 117 117 85
Width: 500
Flags: MW
LayerCount: 2
Fore
SplineSet
72 122 m 2
 72 445 l 1
 150 445 l 1
 150 110 l 2
 151 88 154 71 166 60 c 0
 178 50 197 45 230 45 c 0
 265 45 292 56 312 72 c 0
 334 90 346 114 349 136 c 0
 350 146 350 156 350 165 c 2
 350 445 l 1
 428 445 l 1
 428 0 l 1
 352 0 l 1
 352 28 l 1
 352 48 l 1
 332 30 308 17 284 8 c 0
 248 -6 209 -11 177 -11 c 0
 142 -11 119 -2 103 12 c 0
 72 40 72 87 72 122 c 2
EndSplineSet
EndChar
StartChar: v
Encoding: 118 118 86
Width: 500
Flags: MW
LayerCount: 2
Fore
SplineSet
34 445 m 1
 111 445 l 1
 204 201 l 2
 241 97 247 81 252 50 c 1
 261 116 379 406 392 445 c 1
 466 445 l 1
 294 0 l 1
 206 0 l 1
 34 445 l 1
EndSplineSet
EndChar
StartChar: w
Encoding: 119 119 87
Width: 500
Flags: W
LayerCount: 2
Fore
SplineSet
22 445 m 1
 98 445 l 1
 153 116 149 115 156 75 c 1
 159 150 208 427 212 445 c 1
 282 445 l 1
 322 199 l 2
 339 92 340 107 344 76 c 1
 350 142 397 419 404 445 c 1
 478 445 l 1
 390 0 l 1
 302 0 l 1
 245 374 257 328 246 394 c 1
 242 315 195 24 190 0 c 1
 110 0 l 1
 22 445 l 1
EndSplineSet
EndChar
StartChar: x
Encoding: 120 120 88
Width: 500
Flags: MW
LayerCount: 2
Fore
SplineSet
20 0 m 1
 214 228 l 1
 214 230 l 1
 26 445 l 1
 109 445 l 1
 247 280 l 1
 248 280 l 1
 381 445 l 1
 464 445 l 1
 280 230 l 1
 280 229 l 1
 480 0 l 1
 397 0 l 1
 247 188 l 1
 103 0 l 1
 20 0 l 1
EndSplineSet
EndChar
StartChar: y
Encoding: 121 121 89
Width: 500
Flags: MW
LayerCount: 2
Fore
SplineSet
34 445 m 1
 113 445 l 1
 264 98 246 105 258 50 c 1
 260 141 386 427 391 445 c 1
 466 445 l 1
 249 -90 l 2
 227 -140 209 -169 189 -186 c 4
 172 -200 155 -205 134 -205 c 0
 115 -205 85 -203 61 -197 c 1
 56 -132 l 1
 89 -143 112 -149 129 -149 c 0
 143 -149 154 -145 164 -135 c 0
 181 -118 196 -83 222 -15 c 0
 225 -8 226 -3 226 1 c 0
 226 6 224 10 221 18 c 2
 34 445 l 1
EndSplineSet
EndChar
StartChar: z
Encoding: 122 122 90
Width: 500
Flags: MW
LayerCount: 2
Fore
SplineSet
63 0 m 1
 63 41 l 1
 329 386 l 1
 77 385 l 1
 77 445 l 1
 434 445 l 1
 434 405 l 1
 169 62 l 1
 437 63 l 5
 437 0 l 1
 63 0 l 1
EndSplineSet
EndChar
StartChar: braceleft
Encoding: 123 123 91
Width: 500
Flags: MW
LayerCount: 2
Fore
SplineSet
54 219 m 1
 54 281 l 1
 115 281 184 306 206 363 c 0
 209 371 211 380 212 389 c 2
 212 619 l 2
 213 641 211 653 222 674 c 0
 236 703 263 723 298 735 c 0
 326 745 360 750 395 750 c 2
 448 750 l 1
 448 689 l 1
 424 689 l 2
 294 689 290 655 290 621 c 2
 290 410 l 2
 290 387 286 367 280 350 c 0
 252 275 170 255 129 251 c 9
 129 250 l 17
 172 247 260 225 284 138 c 0
 288 124 290 108 290 90 c 2
 290 -125 l 2
 290 -163 309 -189 424 -189 c 0
 448 -189 l 1
 448 -250 l 1
 403 -250 l 2
 367 -250 327 -249 284 -229 c 0
 203 -192 214 -133 212 -119 c 1
 212 88 l 2
 212 109 212 121 205 140 c 0
 182 192 118 219 54 219 c 1
EndSplineSet
EndChar
StartChar: bar
Encoding: 124 124 92
Width: 500
Flags: MW
LayerCount: 2
Fore
SplineSet
230 -220 m 2
 230 720 l 2
 230 733 233 740 237 744 c 0
 241 748 246 749 250 749 c 0
 258 749 262 746 265 741 c 0
 270 734 270 724 270 720 c 2
 270 -220 l 2
 270 -231 268 -238 265 -242 c 4
 261 -248 255 -249 250 -249 c 0
 242 -249 238 -246 235 -242 c 0
 231 -236 230 -227 230 -220 c 2
EndSplineSet
EndChar
StartChar: braceright
Encoding: 125 125 93
Width: 500
Flags: MW
LayerCount: 2
Fore
SplineSet
52 -189 m 1
 68 -189 86 -189 105 -188 c 4
 152 -186 200 -177 209 -143 c 0
 211 -134 210 -125 210 -116 c 2
 210 90 l 2
 210 104 211 118 214 130 c 0
 233 219 330 246 371 250 c 9
 371 251 l 17
 331 254 250 272 221 347 c 0
 214 365 210 385 210 410 c 2
 210 623 l 2
 210 676 178 688 52 689 c 1
 52 750 l 1
 105 750 l 2
 276 750 289 655 289 626 c 0
 289 622 288 619 288 619 c 1
 288 412 l 2
 289 391 288 379 296 360 c 0
 319 307 382 281 446 281 c 1
 446 219 l 1
 377 219 296 186 289 111 c 2
 288 88 l 1
 288 -119 l 2
 288 -141 288 -154 279 -174 c 0
 267 -198 246 -216 219 -228 c 0
 187 -243 148 -250 105 -250 c 2
 52 -250 l 1
 52 -189 l 1
EndSplineSet
EndChar
StartChar: asciitilde
Encoding: 126 126 126
Width: 500
Flags: MW
LayerCount: 2
Fore
SplineSet
28 557 m 1xb0
 31 632 90 676 155 676 c 0x70
 223 676 280 619 344 619 c 0xb0
 378 619 407 638 411 676 c 1
 472 676 l 1x70
 469 602 410 557 345 557 c 0xb0
 277 557 220 615 156 615 c 0x70
 122 615 93 595 89 557 c 1
 28 557 l 1xb0
EndSplineSet
EndChar
StartChar: exclamdown
Encoding: 161 161 108
Width: 500
Flags: MW
LayerCount: 2
Fore
SplineSet
208 -195 m 1xe0
 216 353 l 1
 283 353 l 1xd0
 291 -143 l 1
 292 -195 l 1
 208 -195 l 1xe0
EndSplineSet
Refer: 14 46 S 1 0 0 1 112 444 2
EndChar
StartChar: cent
Encoding: 162 162 104
Width: 500
Flags: MW
LayerCount: 2
Fore
SplineSet
32 222 m 0
 32 330 109 441 244 459 c 1
 244 547 l 1
 303 547 l 1
 303 460 l 1
 367 458 397 449 462 417 c 1
 451 351 l 1
 402 376 378 392 303 396 c 1
 303 54 l 1
 368 60 405 74 462 107 c 1
 468 40 l 1
 416 11 370 -5 303 -10 c 1
 303 -97 l 1
 244 -97 l 1
 244 -9 l 1
 127 5 32 100 32 222 c 0
112 197 m 4
 122 122 173 69 244 56 c 1
 244 394 l 1
 148 377 110 295 110 223 c 0
 110 214 111 205 112 197 c 4
EndSplineSet
EndChar
StartChar: sterling
Encoding: 163 163 105
Width: 500
Flags: MW
LayerCount: 2
Fore
SplineSet
2 58 m 0
 2 110 60 145 130 145 c 0
 150 145 167 142 182 138 c 1
 184 156 186 174 186 194 c 2
 186 332 l 1
 114 332 l 1
 114 390 l 1
 186 390 l 1
 186 528 l 2
 186 612 186 670 220 707 c 0
 256 747 301 763 338 763 c 0
 472 763 480 604 480 549 c 0
 480 512 456 507 444 507 c 0
 411 507 402 541 402 541 c 1
 402 541 l 1xfc
 402 548 400 555 400 562 c 0
 394 678 371 702 338 702 c 0
 318 702 294 695 274 671 c 0
 262 656 264 575 264 533 c 2
 264 390 l 1
 364 390 l 1
 364 332 l 1
 264 332 l 1
 264 193 l 2
 264 162 261 144 252 112 c 1
 269 105 311 50 368 50 c 0
 394 50 420 80 420 145 c 1
 498 145 l 1xfa
 495 48 419 -11 340 -11 c 0
 289 -11 290 0 216 51 c 1
 165 -8 104 -11 88 -11 c 0
 42 -11 2 17 2 58 c 0
78 61 m 0
 78 54 84 51 92 51 c 0
 123 51 150 76 150 76 c 1
 130 81 114 83 104 83 c 0xf8
 80 83 78 68 78 61 c 0
EndSplineSet
EndChar
StartChar: yen
Encoding: 165 165 60
Width: 483
Flags: W
LayerCount: 2
Fore
SplineSet
16 189 m 0
 16 200 20 206 25 211 c 0
 34 219 48 220 56 220 c 0
 423 220 l 0
 430 220 437 220 444 218 c 0
 457 214 467 204 467 189 c 0
 467 175 456 163 443 160 c 0
 436 158 429 158 422 158 c 0
 59 158 l 0
 57 158 52 158 49 158 c 0
 45 158 42 159 39 160 c 0
 34 161 30 164 26 167 c 0
 20 172 16 180 16 189 c 0
16 388 m 0
 16 396 18 406 27 412 c 0
 33 416 43 419 57 419 c 2
 65 419 l 2
 67 419 70 419 72 420 c 1
 426 420 l 0
 433 420 438 419 443 418 c 0
 463 413 467 399 467 388 c 0
 467 369 455 362 443 359 c 0
 437 358 430 358 425 358 c 0
 59 358 l 0
 55 358 50 358 45 359 c 0
 38 360 30 362 25 366 c 0
 20 370 16 377 16 388 c 0
EndSplineSet
Refer: 57 89 N 1 0 0 1 0 0 2
EndChar
StartChar: logicalnot
Encoding: 172 172 129
Width: 500
Flags: MW
LayerCount: 2
Fore
SplineSet
48 332 m 0
 48 354 72 352 82 352 c 2
 425 352 l 2
 451 352 452 336 452 323 c 2
 452 71 l 2
 452 47 440 43 432 43 c 0
 419 43 415 52 413 60 c 0
 412 65 412 70 412 73 c 2
 412 312 l 1
 80 312 l 2
 77 312 75 312 72 312 c 0
 58 313 48 318 48 332 c 0
EndSplineSet
EndChar
StartChar: acute
Encoding: 180 180 132
Width: 500
Flags: MW
LayerCount: 2
Fore
SplineSet
144 510 m 1
 278 640 l 1
 356 640 l 1
 206 510 l 1
 144 510 l 1
EndSplineSet
EndChar
StartChar: periodcentered
Encoding: 183 183 136
Width: 500
Flags: MW
LayerCount: 2
Fore
SplineSet
205 175 m 1
 205 264 l 1
 295 264 l 1
 295 175 l 1
 205 175 l 1
EndSplineSet
EndChar
StartChar: onehalf
Encoding: 189 189 110
Width: 500
Flags: MW
LayerCount: 2
Fore
SplineSet
37 280 m 1
 39 286 42 290 45 293 c 0
 51 298 58 298 64 298 c 2
 77 298 l 1
 433 298 l 2
 442 298 449 298 454 295 c 0
 458 293 461 289 463 283 c 1
 463 281 463 280 463 278 c 0
 463 272 462 267 457 263 c 0
 453 260 446 258 436 258 c 2
 65 258 l 2
 54 258 47 260 43 263 c 0
 36 268 38 277 37 280 c 1
98 672 m 1
 98 731 l 1
 152 731 220 733 281 772 c 1
 301 772 l 1
 301 396 l 1
 403 396 l 1
 403 338 l 1
 111 338 l 1
 111 396 l 1
 221 396 l 1
 221 686 l 1xfc
 185 676 153 673 98 672 c 1
70 155 m 1
 116 215 163 241 236 241 c 0
 346 241 422 175 422 84 c 0
 422 0 332 -16 261 -53 c 0
 249 -58 238 -66 145 -121 c 1
 294 -121 l 1
 319 -120 l 1
 422 -120 l 1
 422 -195 l 1
 78 -195 l 1
 78 -121 l 1
 167 -65 179 -57 190 -51 c 0
 251 -18 339 6 339 82 c 0
 339 136 291 173 223 173 c 0
 151 173 127 129 109 93 c 1
 70 155 l 1
EndSplineSet
EndChar
StartChar: questiondown
Encoding: 191 191 109
Width: 500
Flags: MW
LayerCount: 2
Fore
SplineSet
70 -43 m 0
 70 43 108 70 130 95 c 0
 155 125 173 156 184 188 c 0
 198 228 202 268 202 310 c 2
 202 353 l 1
 270 353 l 1
 270 323 l 2
 270 252 259 198 244 156 c 0
 217 78 175 42 162 19 c 0
 149 -3 148 -27 148 -47 c 0
 148 -81 156 -105 170 -120 c 4
 186 -137 209 -144 238 -144 c 0
 323 -144 381 -105 408 -86 c 1
 430 -150 l 1
 384 -178 320 -205 238 -205 c 0xe8
 220 -205 203 -203 188 -200 c 0
 147 -192 118 -172 100 -148 c 0
 77 -117 70 -78 70 -43 c 0
EndSplineSet
Refer: 14 46 N 1 0 0 1 98 444 2
EndChar
StartChar: Adieresis
Encoding: 196 196 95
Width: 500
Flags: MW
LayerCount: 2
Fore
SplineSet
107 760 m 1
 107 849 l 1
 197 849 l 1
 197 760 l 1
 107 760 l 1
302 760 m 1
 302 849 l 1
 392 849 l 1
 392 760 l 1
 302 760 l 1
EndSplineSet
Refer: 33 65 N 1 0 0 1 0 0 2
EndChar
StartChar: Ccedilla
Encoding: 199 199 101
Width: 500
Flags: MW
LayerCount: 2
Fore
SplineSet
178 -192 m 1
 252 -23 l 1
 313 -23 l 1
 248 -192 l 1
 178 -192 l 1
EndSplineSet
Refer: 35 67 N 1 0 0 1 0 0 2
EndChar
StartChar: Ntilde
Encoding: 209 209 102
Width: 500
Flags: MW
LayerCount: 2
Fore
SplineSet
91 774 m 1
 93 848 141 889 189 889 c 0xde
 241 889 278 836 323 836 c 0xee
 329 836 335 837 340 840 c 0
 354 847 362 865 363 889 c 1
 424 889 l 1xde
 421 815 374 775 326 775 c 0xee
 274 775 237 828 193 828 c 0xde
 187 828 183 827 178 825 c 0
 163 818 154 800 152 774 c 1
 91 774 l 1
EndSplineSet
Refer: 46 78 N 1 0 0 1 0 0 2
EndChar
StartChar: Odieresis
Encoding: 214 214 111
Width: 500
Flags: MW
LayerCount: 2
Fore
SplineSet
107 760 m 5
 107 849 l 5
 197 849 l 5
 197 760 l 5
 107 760 l 5
302 760 m 5
 302 849 l 5
 392 849 l 5
 392 760 l 5
 302 760 l 5
EndSplineSet
Refer: 47 79 N 1 0 0 1 0 0 2
EndChar
StartChar: germandbls
Encoding: 223 223 99
Width: 500
Flags: MW
LayerCount: 2
Fore
SplineSet
68 0 m 1
 68 564 l 2
 68 699 155 733 238 733 c 0
 319 733 410 700 410 569 c 0xfc
 410 525 403 413 304 402 c 0
 280 399 270 391 270 335 c 0
 270 258 285 283 344 263 c 0
 379 250 432 208 432 127 c 0
 432 45 388 -11 306 -11 c 0
 261 -11 227 6 198 34 c 1
 210 102 l 1
 215 96 247 52 304 52 c 0
 351 52 362 93 362 120 c 0xfa
 362 133 359 170 326 186 c 0
 301 198 272 191 240 220 c 0
 209 249 198 290 198 331 c 0
 198 399 227 452 290 460 c 0
 306 462 316 459 324 482 c 0
 331 505 332 535 332 564 c 0xfc
 332 625 316 672 240 672 c 0
 141 672 142 593 142 561 c 2
 142 0 l 1
 68 0 l 1
EndSplineSet
EndChar
StartChar: acircumflex
Encoding: 226 226 118
Width: 500
Flags: MW
LayerCount: 2
Fore
SplineSet
94 509 m 1
 220 650 l 1
 304 650 l 1
 406 509 l 1
 344 509 l 1
 250 608 l 1xf4
 156 509 l 1
 94 509 l 1
EndSplineSet
Refer: 65 97 N 1 0 0 1 0 0 2
EndChar
StartChar: ccedilla
Encoding: 231 231 100
Width: 500
Flags: MW
LayerCount: 2
Fore
SplineSet
182 -192 m 1
 256 -23 l 1
 318 -23 l 1
 252 -192 l 1
 182 -192 l 1
EndSplineSet
Refer: 67 99 N 1 0 0 1 0 0 2
EndChar
StartChar: iacute
Encoding: 237 237 98
Width: 500
Flags: MW
LayerCount: 2
Fore
SplineSet
144 510 m 1
 278 640 l 1
 356 640 l 1
 206 510 l 1
 144 510 l 1
212 0 m 1
 212 445 l 1
 287 445 l 1
 287 0 l 1
 212 0 l 1
EndSplineSet
EndChar
StartChar: icircumflex
Encoding: 238 238 120
Width: 500
Flags: MW
LayerCount: 2
Fore
SplineSet
94 509 m 1
 220 650 l 1
 304 650 l 1
 406 509 l 1
 344 509 l 1
 250 608 l 1xf4
 250 608 l 1
 156 509 l 1
 94 509 l 1
212 0 m 1
 212 445 l 1
 287 445 l 1
 287 0 l 1
 212 0 l 1
EndSplineSet
EndChar
StartChar: idieresis
Encoding: 239 239 115
Width: 500
Flags: MW
LayerCount: 2
Fore
SplineSet
212 0 m 5
 212 445 l 5
 287 445 l 5
 287 0 l 5
 212 0 l 5
EndSplineSet
Refer: 133 168 N 1 0 0 1 -132 0 2
EndChar
StartChar: ntilde
Encoding: 241 241 103
Width: 500
Flags: MW
LayerCount: 2
Fore
SplineSet
84 551 m 1x58
 86 618 132 660 182 660 c 0x38
 234 660 271 612 314 612 c 0
 341 612 355 635 356 661 c 1
 416 661 l 1
 414 595 369 551 318 551 c 0x58
 267 551 229 599 186 599 c 0x38
 170 599 148 590 144 551 c 1x98
 84 551 l 1x58
EndSplineSet
Refer: 78 110 N 1 0 0 1 0 0 2
EndChar
StartChar: ocircumflex
Encoding: 244 244 121
Width: 500
Flags: MW
LayerCount: 2
Fore
SplineSet
94 509 m 1
 220 650 l 1
 304 650 l 1
 406 509 l 1
 344 509 l 1
 250 608 l 1xf4
 156 509 l 1
 94 509 l 1
EndSplineSet
Refer: 79 111 N 1 0 0 1 0 0 2
EndChar
StartChar: ucircumflex
Encoding: 251 251 122
Width: 500
Flags: MW
LayerCount: 2
Fore
SplineSet
94 509 m 1
 220 650 l 1
 304 650 l 1
 406 509 l 1
 344 509 l 1
 250 608 l 1xf4
 156 509 l 1
 94 509 l 1
EndSplineSet
Refer: 85 117 N 1 0 0 1 0 0 2
EndChar
StartChar: quoteleft
Encoding: 8216 8216 135
Width: 500
Flags: MW
LayerCount: 2
Fore
SplineSet
320 486 m 1
 320 555 l 1
 321 570 l 1
 362 695 l 1
 404 695 l 1
 378 570 l 1
 404 570 l 1
 404 486 l 1
 320 486 l 1
EndSplineSet
EndChar
StartChar: quotedblleft
Encoding: 8220 8220 134
Width: 500
Flags: MW
LayerCount: 2
Fore
SplineSet
397 514 m 1
 397 583 l 1
 398 598 l 1
 439 723 l 1
 481 723 l 1
 455 598 l 1
 481 598 l 1
 481 514 l 1
 397 514 l 1
186 514 m 1
 186 583 l 1
 187 598 l 1
 228 723 l 1
 270 723 l 1
 244 598 l 1
 270 598 l 1
 270 514 l 1
 186 514 l 1
EndSplineSet
EndChar
StartChar: overline
Encoding: 8254 8254 94
Width: 500
Flags: MW
LayerCount: 2
Fore
SplineSet
0 789 m 0
 0 811 23 809 34 809 c 2
 467 809 l 2
 478 809 500 811 500 789 c 0
 500 781 496 769 472 769 c 2
 34 769 l 2
 21 769 0 769 0 789 c 0
EndSplineSet
EndChar
StartChar: celsius
Encoding: 8451 8451 137
Width: 500
Flags: MW
LayerCount: 2
Fore
SplineSet
5 584 m 0
 5 645 42 695 88 695 c 0
 136 695 171 643 171 585 c 0
 171 523 134 473 88 473 c 0
 40 473 5 526 5 584 c 0
48 584 m 0
 48 548 64 514 88 514 c 0
 109 514 127 543 127 584 c 0
 127 625 109 655 88 655 c 0xde
 67 655 48 625 48 584 c 0
EndSplineSet
Refer: 35 67 N 1 0 0 1 46 0 2
EndChar
StartChar: minus
Encoding: 8722 8722 131
Width: 500
Flags: MW
LayerCount: 2
Fore
SplineSet
68 250 m 0
 68 262 74 281 108 281 c 2
 392 281 l 2
 427 281 432 260 432 250 c 0
 432 238 426 220 396 220 c 2
 104 220 l 2
 69 220 68 243 68 250 c 0
EndSplineSet
EndChar
StartChar: hvhorizform
Encoding: 9473 9473 139
Width: 500
VWidth: 940
Flags: W
LayerCount: 2
Fore
SplineSet
0 227 m 1
 0 373 l 1
 500 373 l 1
 500 227 l 1
 0 227 l 1
EndSplineSet
EndChar
StartChar: hvdashtriphorizform
Encoding: 9477 9477 143
Width: 500
VWidth: 940
Flags: W
LayerCount: 2
Fore
SplineSet
30 227 m 1
 30 373 l 1
 137 373 l 1
 137 227 l 1
 30 227 l 1
196.5 227 m 1
 196.5 373 l 1
 303.5 373 l 1
 303.5 227 l 1
 196.5 227 l 1
363 227 m 1
 363 373 l 1
 470 373 l 1
 470 227 l 1
 363 227 l 1
EndSplineSet
EndChar
StartChar: ltdashtripvertform
Encoding: 9478 9478 144
Width: 500
Flags: W
LayerCount: 2
Fore
SplineSet
227 74 m 1
 273 74 l 1
 273 -140 l 1
 227 -140 l 1
 227 74 l 1
227 193 m 1
 227 407 l 1
 273 407 l 1
 273 193 l 1
 227 193 l 1
227 526 m 1
 227 740 l 1
 273 740 l 1
 273 526 l 1
 227 526 l 1
EndSplineSet
EndChar
StartChar: ltdashquadhorizform
Encoding: 9480 9480 146
Width: 500
Flags: W
LayerCount: 2
Fore
SplineSet
20.25 277 m 1
 20.25 323 l 1
 103.75 323 l 1
 103.75 277 l 1
 20.25 277 l 1
145.75 277 m 1
 145.75 323 l 1
 228.75 323 l 1
 228.75 277 l 1
 145.75 277 l 1
270.25 277 m 1
 270.25 323 l 1
 353.75 323 l 1
 353.75 277 l 1
 270.25 277 l 1
395.25 277 m 1
 395.25 323 l 1
 478.75 323 l 1
 478.75 277 l 1
 395.25 277 l 1
EndSplineSet
EndChar
StartChar: hvdashquadhorizform
Encoding: 9481 9481 147
Width: 500
Flags: W
LayerCount: 2
Fore
SplineSet
20.25 227 m 1
 20.25 373 l 1
 103.75 373 l 1
 103.75 227 l 1
 20.25 227 l 1
145.75 227 m 1
 145.75 373 l 1
 228.75 373 l 1
 228.75 227 l 1
 145.75 227 l 1
270.25 227 m 1
 270.25 373 l 1
 353.75 373 l 1
 353.75 227 l 1
 270.25 227 l 1
395.25 227 m 1
 395.25 373 l 1
 478.75 373 l 1
 478.75 227 l 1
 395.25 227 l 1
EndSplineSet
EndChar
StartChar: ltdashquadvertform
Encoding: 9482 9482 148
Width: 500
Flags: W
LayerCount: 2
Fore
SplineSet
227 9 m 1
 273 9 l 1
 273 -158 l 1
 227 -158 l 1
 227 9 l 1
227 92 m 1
 227 259 l 1
 273 259 l 1
 273 92 l 1
 227 92 l 1
227 342 m 1
 227 508 l 1
 273 508 l 1
 273 342 l 1
 227 342 l 1
227 592 m 1
 227 759 l 1
 273 759 l 1
 273 592 l 1
 227 592 l 1
EndSplineSet
EndChar
StartChar: hvdashquadvertform
Encoding: 9483 9483 149
Width: 500
Flags: W
LayerCount: 2
Fore
SplineSet
177 9 m 1
 323 9 l 1
 323 -158 l 1
 177 -158 l 1
 177 9 l 1
177 92 m 1
 177 259 l 1
 323 259 l 1
 323 92 l 1
 177 92 l 1
177 342 m 1
 177 508 l 1
 323 508 l 1
 323 342 l 1
 177 342 l 1
177 592 m 1
 177 759 l 1
 323 759 l 1
 323 592 l 1
 177 592 l 1
EndSplineSet
EndChar
StartChar: dnltrthvform
Encoding: 9485 9485 151
Width: 500
Flags: W
LayerCount: 2
Fore
SplineSet
227 -200 m 1
 227 373 l 1
 500 373 l 1
 500 227 l 1
 273 227 l 1
 273 -200 l 1
 227 -200 l 1
EndSplineSet
EndChar
StartChar: dnhvrtltform
Encoding: 9486 9486 152
Width: 500
Flags: W
LayerCount: 2
Fore
SplineSet
177 -200 m 1
 177 323 l 1
 500 323 l 1
 500 277 l 1
 323 277 l 1
 323 -200 l 1
 177 -200 l 1
EndSplineSet
EndChar
StartChar: hvdnrtform
Encoding: 9487 9487 153
Width: 500
VWidth: 940
Flags: W
LayerCount: 2
Fore
SplineSet
177 -200 m 1
 177 373 l 1
 500 373 l 1
 500 227 l 1
 323 227 l 1
 323 -200 l 1
 177 -200 l 1
EndSplineSet
EndChar
StartChar: ltdnleftform
Encoding: 9488 9488 154
Width: 500
VWidth: 940
Flags: W
LayerCount: 2
Fore
SplineSet
0 277 m 1
 0 323 l 1
 273 323 l 1
 273 -200 l 1
 227 -200 l 1
 227 277 l 1
 0 277 l 1
EndSplineSet
EndChar
StartChar: dnltlefthvform
Encoding: 9489 9489 155
Width: 500
Flags: W
LayerCount: 2
Fore
SplineSet
0 227 m 1
 0 373 l 1
 273 373 l 1
 273 -200 l 1
 227 -200 l 1
 227 227 l 1
 0 227 l 1
EndSplineSet
EndChar
StartChar: hvdnleftform
Encoding: 9491 9491 157
Width: 500
Flags: W
LayerCount: 2
Fore
SplineSet
0 227 m 1
 0 373 l 1
 323 373 l 1
 323 -200 l 1
 177 -200 l 1
 177 227 l 1
 0 227 l 1
EndSplineSet
EndChar
StartChar: ltuprtform
Encoding: 9492 9492 158
Width: 500
VWidth: 940
Flags: W
LayerCount: 2
Fore
SplineSet
227 277 m 1
 227 800 l 1
 273 800 l 1
 273 323 l 1
 500 323 l 1
 500 277 l 1
 227 277 l 1
EndSplineSet
EndChar
StartChar: uphvleftltform
Encoding: 9498 9498 164
Width: 500
Flags: W
LayerCount: 2
Fore
SplineSet
2.84217094304e-14 277 m 1
 0 323 l 1
 177 323 l 1
 177 800 l 1
 323 800 l 1
 323 277 l 1
 2.84217094304e-14 277 l 1
EndSplineSet
EndChar
StartChar: ltvertrightform
Encoding: 9500 9500 166
Width: 500
Flags: W
LayerCount: 2
Fore
SplineSet
227 -200 m 1
 227 800 l 1
 273 800 l 1
 273 323 l 1
 500 323 l 1
 500 277 l 1
 273 277 l 1
 273 -200 l 1
 227 -200 l 1
EndSplineSet
EndChar
StartChar: vertltrthvform
Encoding: 9501 9501 167
Width: 500
VWidth: 940
Flags: W
LayerCount: 2
Fore
SplineSet
227 -200 m 1
 227 800 l 1
 273 800 l 1
 273 373 l 1
 500 373 l 1
 500 227 l 1
 273 227 l 1
 273 -200 l 1
 227 -200 l 1
EndSplineSet
EndChar
StartChar: dnhvrtupltform
Encoding: 9503 9503 169
Width: 500
Flags: W
LayerCount: 2
Fore
SplineSet
177 -200 m 1
 177 323 l 1
 227 323 l 1
 227 800 l 1
 273 800 l 1
 273 323 l 1
 500 323 l 1
 500 277 l 1
 323 277 l 1
 323 -200 l 1
 177 -200 l 1
EndSplineSet
EndChar
StartChar: dnltrtuphvform
Encoding: 9505 9505 171
Width: 500
VWidth: 940
Flags: W
LayerCount: 2
Fore
SplineSet
177 227 m 1
 177 800 l 1
 323 800 l 1
 323 373 l 1
 500 373 l 1
 500 227 l 1
 273 227 l 1
 273 -200 l 1
 227 -200 l 1
 227 227 l 1
 177 227 l 1
EndSplineSet
EndChar
StartChar: upltrtdnhvform
Encoding: 9506 9506 172
Width: 500
Flags: W
LayerCount: 2
Fore
SplineSet
177 -200 m 1
 177 373 l 1
 227 373 l 1
 227 800 l 1
 273 800 l 1
 273 373 l 1
 500 373 l 1
 500 227 l 1
 323 227 l 1
 323 -200 l 1
 177 -200 l 1
EndSplineSet
EndChar
StartChar: ltvertleftform
Encoding: 9508 9508 174
Width: 500
Flags: W
LayerCount: 2
Fore
SplineSet
0 277 m 1
 1.42108547152e-14 323 l 1
 227 323 l 1
 227 800 l 1
 273 800 l 1
 273 -200 l 1
 227 -200 l 1
 227 277 l 1
 0 277 l 1
EndSplineSet
EndChar
StartChar: dnhvleftupltform
Encoding: 9511 9511 177
Width: 500
VWidth: 940
Flags: W
LayerCount: 2
Fore
SplineSet
0 277 m 1
 1.42108547152e-14 323 l 1
 227 323 l 1
 227 800 l 1
 273 800 l 1
 273 323 l 1
 323 323 l 1
 323 -200 l 1
 177 -200 l 1
 177 277 l 1
 0 277 l 1
EndSplineSet
EndChar
StartChar: hvdnhorizform
Encoding: 9523 9523 189
Width: 500
Flags: W
LayerCount: 2
Fore
SplineSet
0 227 m 1
 0 373 l 1
 500 373 l 1
 500 227 l 1
 323 227 l 1
 323 -200 l 1
 177 -200 l 1
 177 227 l 1
 0 227 l 1
EndSplineSet
EndChar
StartChar: ltuphorizform
Encoding: 9524 9524 190
Width: 500
Flags: W
LayerCount: 2
Fore
SplineSet
0 277 m 1
 1.42108547152e-14 323 l 1
 227 323 l 1
 227 800 l 1
 273 800 l 1
 273 323 l 1
 500 323 l 1
 500 277 l 1
 0 277 l 1
EndSplineSet
EndChar
StartChar: uplthorizhvform
Encoding: 9527 9527 193
Width: 500
VWidth: 940
Flags: W
LayerCount: 2
Fore
SplineSet
0 227 m 1
 1.42108547152e-14 373 l 1
 227 373 l 1
 227 800 l 1
 273 800 l 1
 273 373 l 1
 500 373 l 1
 500 227 l 1
 0 227 l 1
EndSplineSet
EndChar
StartChar: uphvhorizltform
Encoding: 9528 9528 194
Width: 500
VWidth: 940
Flags: W
LayerCount: 2
Fore
SplineSet
0 277 m 1
 0 323 l 1
 177 323 l 1
 177 800 l 1
 323 800 l 1
 323 323 l 1
 500 323 l 1
 500 277 l 1
 0 277 l 1
EndSplineSet
EndChar
StartChar: rtltleftuphvform
Encoding: 9529 9529 195
Width: 500
VWidth: 940
Flags: W
LayerCount: 2
Fore
SplineSet
2.84217094304e-14 227 m 1
 0 373 l 1
 177 373 l 1
 177 800 l 1
 323 800 l 1
 323 323 l 1
 500 323 l 1
 500 277 l 1
 323 277 l 1
 323 227 l 1
 2.84217094304e-14 227 l 1
EndSplineSet
EndChar
StartChar: leftltrtuphvform
Encoding: 9530 9530 196
Width: 500
VWidth: 940
Flags: W
LayerCount: 2
Fore
SplineSet
0 277 m 1
 0 323 l 1
 177 323 l 1
 177 800 l 1
 323 800 l 1
 323 373 l 1
 500 373 l 1
 500 227 l 1
 177 227 l 1
 177 277 l 1
 0 277 l 1
EndSplineSet
EndChar
StartChar: hvuphorizform
Encoding: 9531 9531 197
Width: 500
VWidth: 940
Flags: W
LayerCount: 2
Fore
SplineSet
0 227 m 1
 0 373 l 1
 177 373 l 1
 177 800 l 1
 323 800 l 1
 323 373 l 1
 500 373 l 1
 500 227 l 1
 0 227 l 1
EndSplineSet
EndChar
StartChar: rthvleftvertltform
Encoding: 9534 9534 200
Width: 500
VWidth: 940
Flags: W
LayerCount: 2
Fore
SplineSet
0 277 m 1
 1.42108547152e-14 323 l 1
 227 323 l 1
 227 800 l 1
 273 800 l 1
 273 373 l 1
 500 373 l 1
 500 227 l 1
 273 227 l 1
 273 -200 l 1
 227 -200 l 1
 227 277 l 1
 0 277 l 1
EndSplineSet
EndChar
StartChar: uphvdnhorizltform
Encoding: 9536 9536 202
Width: 500
Flags: W
LayerCount: 2
Fore
SplineSet
0 277 m 1
 0 323 l 1
 177 323 l 1
 177 800 l 1
 323 800 l 1
 323 323 l 1
 500 323 l 1
 500 277 l 1
 273 277 l 1
 273 -200 l 1
 227 -200 l 1
 227 277 l 1
 0 277 l 1
EndSplineSet
EndChar
StartChar: rtuphvleftdnltform
Encoding: 9540 9540 206
Width: 500
VWidth: 940
Flags: W
LayerCount: 2
Fore
SplineSet
0 277 m 1
 0 323 l 1
 177 323 l 1
 177 800 l 1
 323 800 l 1
 323 373 l 1
 500 373 l 1
 500 227 l 1
 273 227 l 1
 273 -200 l 1
 227 -200 l 1
 227 227 l 1
 177 227 l 1
 177 277 l 1
 0 277 l 1
EndSplineSet
EndChar
StartChar: rtltleftverthvform
Encoding: 9545 9545 211
Width: 500
Flags: W
LayerCount: 2
Fore
SplineSet
0 227 m 1
 0 373 l 1
 177 373 l 1
 177 800 l 1
 323 800 l 1
 323 323 l 1
 500 323 l 1
 500 277 l 1
 323 277 l 1
 323 -200 l 1
 177 -200 l 1
 177 227 l 1
 0 227 l 1
EndSplineSet
EndChar
StartChar: triagup
Encoding: 9650 9650 128
Width: 500
Flags: MW
LayerCount: 2
Fore
SplineSet
29 106 m 4
 29 109 29 108 74 198 c 6
 232 516 l 6
 236 523 239 530 249 530 c 4
 257 530 261 528 268 514 c 6
 467 116 l 6
 468 113 470 109 470 106 c 4
 470 101 466 100 460 100 c 6
 44 100 l 6
 32 100 29 101 29 106 c 4
EndSplineSet
EndChar
StartChar: female
Encoding: 9792 9792 214
Width: 500
Flags: W
LayerCount: 2
Fore
SplineSet
97 501 m 0
 97 418 167 348 250 348 c 0
 333 348 403 418 403 501 c 0
 403 584 333 654 250 654 c 0
 167 654 97 584 97 501 c 0
50 160 m 1
 50 207 l 1
 227 207 l 1
 227 302 l 1
 131 314 50 395 50 501 c 0
 50 612 139 701 250 701 c 0
 361 701 450 612 450 501 c 0
 450 395 369 314 273 302 c 1
 273 207 l 1
 450 207 l 1
 450 160 l 1
 273 160 l 1
 273 0 l 1
 269 0 l 1
 231 0 l 1
 227 0 l 1
 227 160 l 1
 50 160 l 1
EndSplineSet
Colour: ff
EndChar
